<svg width="15" height="13" viewBox="0 0 15 13" fill="none" xmlns="http://www.w3.org/2000/svg">
<path d="M9.32477 12.6783L14.6819 7.26168C14.894 7.05855 15 6.80465 15 6.5C15 6.19535 14.894 5.94145 14.6819 5.73832L9.32477 0.321657C9.12388 0.107219 8.87277 0 8.57143 0C8.27009 0 8.01898 0.107219 7.81809 0.321657C7.60603 0.524787 7.5 0.778679 7.5 1.08333C7.5 1.38799 7.60603 1.64188 7.81809 1.84501L11.3338 5.41667H1.07143C0.77009 5.41667 0.516184 5.52104 0.30971 5.72978C0.103237 5.93861 0 6.19535 0 6.5C0 6.80465 0.103237 7.0614 0.30971 7.27022C0.516184 7.47896 0.77009 7.58333 1.07143 7.58333H11.3338L7.81809 11.155C7.70648 11.2565 7.62556 11.375 7.57533 11.5104C7.52511 11.6458 7.5 11.7812 7.5 11.9167C7.5 12.0521 7.52511 12.1875 7.57533 12.3229C7.62556 12.4583 7.70648 12.5768 7.81809 12.6783C8.01898 12.8928 8.27009 13 8.57143 13C8.87277 13 9.12388 12.8928 9.32477 12.6783Z" fill="white"/>
</svg>
