<svg width="16" height="12" viewBox="0 0 16 12" fill="none" xmlns="http://www.w3.org/2000/svg">
<path d="M15.7292 0.259828C15.5486 0.0866089 15.3402 0 15.1042 0C14.8681 0 14.6598 0.0866089 14.4792 0.259828L5.33333 9.79063L1.52084 5.80495C1.34028 5.63173 1.13194 5.54512 0.895832 5.54512C0.659723 5.54512 0.451388 5.63173 0.270827 5.80495C0.0902755 5.99275 0 6.20938 0 6.45484C0 6.70031 0.0902755 6.91688 0.270827 7.10457L4.70833 11.74C4.80556 11.8267 4.89931 11.8917 4.98958 11.935C5.07986 11.9783 5.19444 12 5.33333 12C5.47222 12 5.58681 11.9783 5.67709 11.935C5.76736 11.8917 5.86111 11.8267 5.95834 11.74L15.7292 1.55945C15.9097 1.37176 16 1.15518 16 0.909717C16 0.664253 15.9097 0.447623 15.7292 0.259828Z" fill="#2C8B2F"/>
</svg>
