<svg width="147" height="147" viewBox="0 0 147 147" fill="none" xmlns="http://www.w3.org/2000/svg">
<path d="M73.5 0C84.0389 1.25676e-07 94.4547 2.26643 104.041 6.64557C113.627 11.0247 122.159 17.4141 129.059 25.3805C135.958 33.3469 141.064 42.704 144.03 52.817C146.996 62.9301 147.752 73.5627 146.247 83.9937C144.742 94.4247 141.012 104.41 135.309 113.273C129.606 122.135 122.064 129.668 113.194 135.36C104.324 141.051 94.3343 144.769 83.9014 146.26C73.4686 147.752 62.8369 146.982 52.7276 144.004L73.5 73.5V0Z" fill="#5A99F9"/>
<path d="M21.5276 21.5277C28.3528 14.7025 36.4553 9.28858 45.3728 5.59486C54.2902 1.90113 63.8478 -1.15101e-07 73.5 0V73.5L21.5276 21.5277Z" fill="#F17173"/>
<path d="M6.23046 43.8848C9.91597 35.5134 15.1317 27.9034 21.6096 21.4458L73.5 73.5L6.23046 43.8848Z" fill="#FECB3F"/>
<path d="M52.6649 143.985C39.1965 140.004 27.1508 132.247 17.9534 121.633L73.5 73.5L52.6649 143.985Z" fill="#7E74FB"/>
<path d="M18.0132 121.702C8.88669 111.197 2.93024 98.3158 0.836576 84.5579C-1.25709 70.8 0.598052 56.7304 6.18626 43.9854L73.5 73.5L18.0132 121.702Z" fill="#54CA50"/>
<circle cx="73.5" cy="73.5" r="58.5" fill="white"/>
<path d="M43.918 85.3125V91H42.9453V85.3125H43.918ZM45.7031 85.3125V86.0938H41.1758V85.3125H45.7031ZM51.4389 88V88.3125C51.4389 88.7422 51.3829 89.1276 51.2709 89.4688C51.159 89.8099 50.9988 90.1003 50.7905 90.3398C50.5847 90.5794 50.3373 90.763 50.0483 90.8906C49.7592 91.0156 49.4389 91.0781 49.0873 91.0781C48.7384 91.0781 48.4194 91.0156 48.1303 90.8906C47.8439 90.763 47.5952 90.5794 47.3842 90.3398C47.1733 90.1003 47.0092 89.8099 46.892 89.4688C46.7774 89.1276 46.7202 88.7422 46.7202 88.3125V88C46.7202 87.5703 46.7774 87.1862 46.892 86.8477C47.0066 86.5065 47.1681 86.2161 47.3764 85.9766C47.5873 85.7344 47.836 85.5508 48.1225 85.4258C48.4116 85.2982 48.7306 85.2344 49.0795 85.2344C49.4311 85.2344 49.7514 85.2982 50.0405 85.4258C50.3295 85.5508 50.5782 85.7344 50.7866 85.9766C50.9949 86.2161 51.1551 86.5065 51.267 86.8477C51.3816 87.1862 51.4389 87.5703 51.4389 88ZM50.4584 88.3125V87.9922C50.4584 87.6745 50.4272 87.3945 50.3647 87.1523C50.3048 86.9076 50.2149 86.7031 50.0952 86.5391C49.978 86.3724 49.8334 86.2474 49.6616 86.1641C49.4897 86.0781 49.2957 86.0352 49.0795 86.0352C48.8634 86.0352 48.6707 86.0781 48.5014 86.1641C48.3321 86.2474 48.1876 86.3724 48.0678 86.5391C47.9506 86.7031 47.8608 86.9076 47.7983 87.1523C47.7358 87.3945 47.7045 87.6745 47.7045 87.9922V88.3125C47.7045 88.6302 47.7358 88.9115 47.7983 89.1562C47.8608 89.401 47.9519 89.6081 48.0717 89.7773C48.1941 89.944 48.3399 90.0703 48.5092 90.1562C48.6785 90.2396 48.8712 90.2812 49.0873 90.2812C49.3061 90.2812 49.5001 90.2396 49.6694 90.1562C49.8386 90.0703 49.9819 89.944 50.0991 89.7773C50.2162 89.6081 50.3048 89.401 50.3647 89.1562C50.4272 88.9115 50.4584 88.6302 50.4584 88.3125ZM55.1239 85.3125V91H54.1512V85.3125H55.1239ZM56.9091 85.3125V86.0938H52.3817V85.3125H56.9091ZM60.0589 86.0703L58.3597 91H57.3323L59.473 85.3125H60.1292L60.0589 86.0703ZM61.4808 91L59.7777 86.0703L59.7034 85.3125H60.3636L62.512 91H61.4808ZM61.3988 88.8906V89.668H58.305V88.8906H61.3988ZM67.2712 90.2227V91H64.4158V90.2227H67.2712ZM64.6892 85.3125V91H63.7087V85.3125H64.6892ZM75.6764 88V88.3125C75.6764 88.7422 75.6204 89.1276 75.5084 89.4688C75.3965 89.8099 75.2363 90.1003 75.028 90.3398C74.8222 90.5794 74.5748 90.763 74.2858 90.8906C73.9967 91.0156 73.6764 91.0781 73.3248 91.0781C72.9759 91.0781 72.6569 91.0156 72.3678 90.8906C72.0814 90.763 71.8327 90.5794 71.6217 90.3398C71.4108 90.1003 71.2467 89.8099 71.1295 89.4688C71.0149 89.1276 70.9577 88.7422 70.9577 88.3125V88C70.9577 87.5703 71.0149 87.1862 71.1295 86.8477C71.2441 86.5065 71.4056 86.2161 71.6139 85.9766C71.8248 85.7344 72.0735 85.5508 72.36 85.4258C72.6491 85.2982 72.9681 85.2344 73.317 85.2344C73.6686 85.2344 73.9889 85.2982 74.278 85.4258C74.567 85.5508 74.8157 85.7344 75.0241 85.9766C75.2324 86.2161 75.3926 86.5065 75.5045 86.8477C75.6191 87.1862 75.6764 87.5703 75.6764 88ZM74.6959 88.3125V87.9922C74.6959 87.6745 74.6647 87.3945 74.6022 87.1523C74.5423 86.9076 74.4524 86.7031 74.3327 86.5391C74.2155 86.3724 74.0709 86.2474 73.8991 86.1641C73.7272 86.0781 73.5332 86.0352 73.317 86.0352C73.1009 86.0352 72.9082 86.0781 72.7389 86.1641C72.5696 86.2474 72.4251 86.3724 72.3053 86.5391C72.1881 86.7031 72.0983 86.9076 72.0358 87.1523C71.9733 87.3945 71.942 87.6745 71.942 87.9922V88.3125C71.942 88.6302 71.9733 88.9115 72.0358 89.1562C72.0983 89.401 72.1894 89.6081 72.3092 89.7773C72.4316 89.944 72.5774 90.0703 72.7467 90.1562C72.916 90.2396 73.1087 90.2812 73.3248 90.2812C73.5436 90.2812 73.7376 90.2396 73.9069 90.1562C74.0761 90.0703 74.2194 89.944 74.3366 89.7773C74.4538 89.6081 74.5423 89.401 74.6022 89.1562C74.6647 88.9115 74.6959 88.6302 74.6959 88.3125ZM77.2169 85.3125H79.2286C79.6609 85.3125 80.0294 85.3776 80.3341 85.5078C80.6387 85.638 80.8718 85.8307 81.0333 86.0859C81.1973 86.3385 81.2794 86.651 81.2794 87.0234C81.2794 87.3073 81.2273 87.5573 81.1231 87.7734C81.019 87.9896 80.8718 88.1719 80.6817 88.3203C80.4916 88.4661 80.2651 88.5794 80.002 88.6602L79.7052 88.8047H77.8966L77.8887 88.0273H79.2442C79.4786 88.0273 79.6739 87.9857 79.8302 87.9023C79.9864 87.819 80.1036 87.7057 80.1817 87.5625C80.2624 87.4167 80.3028 87.2526 80.3028 87.0703C80.3028 86.8724 80.2637 86.7005 80.1856 86.5547C80.1101 86.4062 79.9929 86.293 79.8341 86.2148C79.6752 86.1341 79.4734 86.0938 79.2286 86.0938H78.1973V91H77.2169V85.3125ZM80.463 91L79.127 88.4453L80.1544 88.4414L81.5098 90.9492V91H80.463ZM84.4683 91H83.2534L83.2612 90.2227H84.4683C84.8198 90.2227 85.1141 90.1458 85.3511 89.9922C85.5907 89.8385 85.7704 89.6185 85.8902 89.332C86.0126 89.0456 86.0737 88.7044 86.0737 88.3086V88C86.0737 87.6927 86.0386 87.4206 85.9683 87.1836C85.9006 86.9466 85.799 86.7474 85.6636 86.5859C85.5308 86.4245 85.3667 86.3021 85.1714 86.2188C84.9787 86.1354 84.756 86.0938 84.5034 86.0938H83.23V85.3125H84.5034C84.881 85.3125 85.2261 85.3763 85.5386 85.5039C85.8511 85.6289 86.1206 85.8099 86.3472 86.0469C86.5764 86.2839 86.7521 86.5677 86.8745 86.8984C86.9969 87.2292 87.0581 87.599 87.0581 88.0078V88.3086C87.0581 88.7174 86.9969 89.0872 86.8745 89.418C86.7521 89.7487 86.5764 90.0326 86.3472 90.2695C86.118 90.5039 85.8446 90.6849 85.5269 90.8125C85.2118 90.9375 84.8589 91 84.4683 91ZM83.7964 85.3125V91H82.8159V85.3125H83.7964ZM92.3252 90.2227V91H89.3056V90.2227H92.3252ZM89.583 85.3125V91H88.6025V85.3125H89.583ZM91.9306 87.6875V88.4531H89.3056V87.6875H91.9306ZM92.3056 85.3125V86.0938H89.3056V85.3125H92.3056ZM93.6859 85.3125H95.6977C96.1299 85.3125 96.4984 85.3776 96.8031 85.5078C97.1078 85.638 97.3409 85.8307 97.5023 86.0859C97.6664 86.3385 97.7484 86.651 97.7484 87.0234C97.7484 87.3073 97.6964 87.5573 97.5922 87.7734C97.488 87.9896 97.3409 88.1719 97.1508 88.3203C96.9607 88.4661 96.7341 88.5794 96.4711 88.6602L96.1742 88.8047H94.3656L94.3578 88.0273H95.7133C95.9477 88.0273 96.143 87.9857 96.2992 87.9023C96.4555 87.819 96.5727 87.7057 96.6508 87.5625C96.7315 87.4167 96.7719 87.2526 96.7719 87.0703C96.7719 86.8724 96.7328 86.7005 96.6547 86.5547C96.5792 86.4062 96.462 86.293 96.3031 86.2148C96.1443 86.1341 95.9424 86.0938 95.6977 86.0938H94.6664V91H93.6859V85.3125ZM96.932 91L95.5961 88.4453L96.6234 88.4414L97.9789 90.9492V91H96.932ZM102.277 89.5352C102.277 89.418 102.259 89.3138 102.222 89.2227C102.189 89.1315 102.127 89.0482 102.039 88.9727C101.95 88.8971 101.825 88.8242 101.664 88.7539C101.505 88.681 101.302 88.6068 101.055 88.5312C100.784 88.4479 100.534 88.3555 100.305 88.2539C100.078 88.1497 99.8801 88.0299 99.7108 87.8945C99.5415 87.7565 99.41 87.599 99.3162 87.4219C99.2225 87.2422 99.1756 87.0352 99.1756 86.8008C99.1756 86.569 99.2238 86.3581 99.3202 86.168C99.4191 85.9779 99.5584 85.8138 99.7381 85.6758C99.9204 85.5352 100.135 85.4271 100.383 85.3516C100.63 85.2734 100.903 85.2344 101.203 85.2344C101.625 85.2344 101.988 85.3125 102.293 85.4688C102.6 85.625 102.836 85.8346 103 86.0977C103.167 86.3607 103.25 86.651 103.25 86.9688H102.277C102.277 86.7812 102.237 86.6159 102.156 86.4727C102.078 86.3268 101.958 86.2122 101.797 86.1289C101.638 86.0456 101.436 86.0039 101.191 86.0039C100.959 86.0039 100.767 86.0391 100.613 86.1094C100.459 86.1797 100.345 86.2747 100.269 86.3945C100.194 86.5143 100.156 86.6497 100.156 86.8008C100.156 86.9076 100.181 87.0052 100.23 87.0938C100.28 87.1797 100.355 87.2604 100.457 87.3359C100.558 87.4089 100.686 87.4779 100.84 87.543C100.993 87.6081 101.174 87.6706 101.383 87.7305C101.698 87.8242 101.972 87.9284 102.207 88.043C102.441 88.1549 102.637 88.2826 102.793 88.4258C102.949 88.569 103.066 88.7318 103.144 88.9141C103.222 89.0938 103.262 89.2982 103.262 89.5273C103.262 89.7669 103.213 89.9831 103.117 90.1758C103.021 90.3659 102.883 90.5286 102.703 90.6641C102.526 90.7969 102.312 90.8997 102.062 90.9727C101.815 91.043 101.539 91.0781 101.234 91.0781C100.961 91.0781 100.691 91.0417 100.426 90.9688C100.163 90.8958 99.923 90.7852 99.7069 90.6367C99.4907 90.4857 99.3189 90.2982 99.1912 90.0742C99.0636 89.8477 98.9998 89.5833 98.9998 89.2812H99.9803C99.9803 89.4661 100.012 89.6237 100.074 89.7539C100.139 89.8841 100.229 89.9909 100.344 90.0742C100.458 90.1549 100.591 90.2148 100.742 90.2539C100.896 90.293 101.06 90.3125 101.234 90.3125C101.463 90.3125 101.655 90.2799 101.808 90.2148C101.965 90.1497 102.082 90.0586 102.16 89.9414C102.238 89.8242 102.277 89.6888 102.277 89.5352Z" fill="#999999"/>
<path d="M59.75 58.4521V77H56.6904V62.083L52.1582 63.6191V61.0928L59.3818 58.4521H59.75ZM78.9072 70.4111V72.8486H65.5771L65.4756 71.0078L73.4482 58.5156H75.8984L73.2451 63.0605L68.6621 70.4111H78.9072ZM76.5967 58.5156V77H73.5371V58.5156H76.5967ZM93.3418 74.5625V77H80.9512V74.9053L86.9688 68.3418C87.6289 67.597 88.1494 66.9538 88.5303 66.4121C88.9111 65.8704 89.1777 65.3838 89.3301 64.9521C89.4909 64.512 89.5713 64.0846 89.5713 63.6699C89.5713 63.0859 89.4613 62.5739 89.2412 62.1338C89.0296 61.6852 88.7165 61.334 88.3018 61.0801C87.887 60.8177 87.3835 60.6865 86.791 60.6865C86.1055 60.6865 85.5299 60.8346 85.0645 61.1309C84.599 61.4271 84.2477 61.8376 84.0107 62.3623C83.7738 62.8786 83.6553 63.471 83.6553 64.1396H80.5957C80.5957 63.0648 80.8411 62.083 81.332 61.1943C81.8229 60.2972 82.5339 59.5863 83.4648 59.0615C84.3958 58.5283 85.5173 58.2617 86.8291 58.2617C88.0648 58.2617 89.1143 58.4691 89.9775 58.8838C90.8408 59.2985 91.4967 59.8867 91.9453 60.6484C92.4023 61.4102 92.6309 62.3115 92.6309 63.3525C92.6309 63.9281 92.5378 64.4993 92.3516 65.0664C92.1654 65.6335 91.8988 66.2005 91.5518 66.7676C91.2132 67.3262 90.8112 67.889 90.3457 68.4561C89.8802 69.0146 89.3682 69.5817 88.8096 70.1572L84.8105 74.5625H93.3418Z" fill="#3F4B5B"/>
</svg>
