<svg width="21" height="21" viewBox="0 0 21 21" fill="none" xmlns="http://www.w3.org/2000/svg">
<path d="M14.3009 3.46733L15.1163 3.90996C15.1163 3.90996 15.5372 3.84437 16.3789 3.71319C17.2206 3.58202 17.6765 3.50821 17.7466 3.49179C18.1325 3.45905 18.5095 3.52872 18.8777 3.70078C19.246 3.87297 19.5178 4.1066 19.6933 4.40169L20.7453 6.09849C20.9382 6.40988 21.0215 6.75413 20.9952 7.13124C20.9689 7.50822 20.8505 7.82789 20.64 8.09025C20.5875 8.17214 20.285 8.52047 19.7327 9.13523C19.1803 9.74999 18.9041 10.0574 18.9041 10.0574C18.9041 10.0574 18.9084 10.0902 18.9172 10.1557C18.926 10.2213 18.9304 10.3361 18.9304 10.5C18.9304 10.582 18.926 10.6804 18.9172 10.7951C18.9084 10.9099 18.9041 10.9673 18.9041 10.9673C18.9041 10.9673 19.1803 11.2705 19.7327 11.877C20.285 12.4836 20.5787 12.8197 20.6139 12.8853C20.8418 13.164 20.9689 13.4918 20.9952 13.8689C21.0215 14.2459 20.9382 14.5902 20.7453 14.9017L19.6933 16.5983C19.5004 16.9098 19.2242 17.1475 18.8646 17.3114C18.5051 17.4754 18.1412 17.5409 17.773 17.5082C17.773 17.5082 17.3302 17.4345 16.4447 17.287C15.5591 17.1394 15.1163 17.0656 15.1163 17.0656L14.3009 17.5329C14.3009 17.5329 14.1518 17.9058 13.8537 18.6516C13.5556 19.3975 13.389 19.8033 13.354 19.8689C13.2137 20.1967 12.9725 20.4672 12.6306 20.6804C12.2886 20.8935 11.9248 21 11.539 21H9.46097C9.07519 21 8.7157 20.8935 8.38253 20.6804C8.04934 20.4672 7.81261 20.2049 7.67233 19.8935C7.63725 19.8279 7.47065 19.4181 7.17254 18.664C6.87444 17.9099 6.72538 17.5329 6.72538 17.5329L5.88366 17.0656C5.88366 17.0656 5.4628 17.1352 4.62107 17.2746C3.77935 17.4139 3.32341 17.4918 3.25327 17.5082C2.86748 17.5409 2.49484 17.4713 2.13536 17.2992C1.77587 17.127 1.49967 16.8934 1.30678 16.5983L0.254632 14.9017C0.0617376 14.5902 -0.0215625 14.2459 0.00473133 13.8689C0.031038 13.4918 0.158178 13.1722 0.386152 12.9099C0.438753 12.8279 0.736861 12.4795 1.28048 11.8648C1.82409 11.25 2.0959 10.9426 2.0959 10.9426C2.0959 10.9426 2.0959 10.9098 2.0959 10.8443C2.0959 10.7787 2.0959 10.6639 2.0959 10.5C2.0959 10.4181 2.0959 10.3239 2.0959 10.2173C2.0959 10.1107 2.0959 10.0574 2.0959 10.0574C2.0959 10.0574 1.82409 9.74999 1.28048 9.13523C0.736861 8.52047 0.438753 8.18029 0.386152 8.11471C0.158178 7.83604 0.0354246 7.50822 0.0178911 7.13124C0.00035755 6.75413 0.0792711 6.40988 0.254632 6.09849L1.30678 4.40169C1.49967 4.09018 1.77587 3.85246 2.13536 3.68855C2.49484 3.52464 2.85871 3.45905 3.22697 3.49179C3.31465 3.50821 3.78373 3.58609 4.63421 3.72542C5.48471 3.86476 5.90996 3.93442 5.90996 3.93442L6.72538 3.46733C6.72538 3.46733 6.87005 3.09436 7.15938 2.34842C7.44873 1.60249 7.61094 1.19672 7.64601 1.13114C7.80383 0.803312 8.04934 0.532865 8.38253 0.319792C8.7157 0.106599 9.07519 0 9.46097 0H11.539C11.9248 0 12.2886 0.106599 12.6306 0.319792C12.9725 0.532865 13.2137 0.79516 13.354 1.10668C13.389 1.17214 13.5556 1.58198 13.8537 2.33619C14.1518 3.09028 14.3009 3.46733 14.3009 3.46733ZM12.4333 4.99181L12.3018 4.52472C12.179 4.18035 12.0037 3.71313 11.7757 3.12308C11.5478 2.5329 11.4162 2.20502 11.3812 2.13943C11.3636 2.09027 11.0699 2.06568 10.5 2.06568C9.93007 2.06568 9.63634 2.09027 9.6188 2.13943C9.58373 2.20502 9.45221 2.5329 9.22425 3.12308C8.99628 3.71313 8.82968 4.18035 8.72447 4.52472L8.56665 4.99181L8.09319 5.18858C7.86521 5.2869 7.64163 5.39344 7.42243 5.50819C7.20322 5.62294 6.99718 5.7459 6.80428 5.87708L6.38342 6.17223L5.85736 6.07385C5.4891 5.99183 4.97617 5.89758 4.31857 5.79111C3.66098 5.68451 3.28835 5.623 3.20066 5.60657C3.14805 5.60657 2.98146 5.83607 2.70088 6.29507C2.42031 6.75407 2.29756 7 2.33264 7.03285C2.36771 7.09844 2.60006 7.36895 3.02968 7.84438C3.45931 8.31969 3.80565 8.68852 4.06869 8.95087L4.43695 9.31976L4.38433 9.8115C4.3668 9.92625 4.35364 10.041 4.34487 10.1557C4.33611 10.2705 4.33173 10.3852 4.33173 10.5C4.33173 10.6147 4.33611 10.7295 4.34487 10.8443C4.35364 10.959 4.3668 11.0738 4.38433 11.1885L4.43695 11.6804L4.06869 12.0491C3.80565 12.3115 3.45931 12.6804 3.02968 13.1558C2.60006 13.6312 2.36771 13.9017 2.33264 13.9673C2.29756 14.0001 2.42031 14.2459 2.70088 14.7049C2.98146 15.1639 3.14805 15.3934 3.20066 15.3934C3.28835 15.377 3.66098 15.3155 4.31857 15.2091C4.97617 15.1025 5.4891 15.0082 5.85736 14.9263L6.38342 14.828L6.80428 15.1229C6.99718 15.2541 7.20322 15.3771 7.42243 15.4918C7.64163 15.6066 7.86521 15.7131 8.09319 15.8114L8.56665 16.0082L8.72447 16.4755C8.82968 16.8197 8.99628 17.2869 9.22425 17.8771C9.45221 18.4673 9.58373 18.7952 9.6188 18.8608C9.63634 18.9099 9.93007 18.9345 10.5 18.9345C11.0699 18.9345 11.3636 18.9099 11.3812 18.8608C11.4162 18.7952 11.5478 18.4673 11.7757 17.8771C12.0037 17.2869 12.179 16.8197 12.3018 16.4755L12.4333 16.0082L12.9331 15.8114C13.1611 15.7131 13.3803 15.6066 13.5907 15.4918C13.8011 15.3771 14.0115 15.2541 14.222 15.1229L14.6428 14.828L15.1426 14.9263C15.5109 15.0082 16.0282 15.1025 16.6946 15.2091C17.361 15.3155 17.7292 15.377 17.7994 15.3934C17.8344 15.3934 17.9966 15.1639 18.2859 14.7049C18.5753 14.2459 18.7112 14.0001 18.6936 13.9673C18.641 13.9017 18.3999 13.6312 17.9702 13.1558C17.5406 12.6804 17.1943 12.3115 16.9313 12.0491L16.563 11.6804L16.6419 11.1885C16.6419 11.0738 16.6463 10.959 16.6552 10.8443C16.6639 10.7295 16.6683 10.6147 16.6683 10.5C16.6683 10.3852 16.6683 10.2705 16.6683 10.1557C16.6683 10.041 16.6595 9.92625 16.6419 9.8115L16.563 9.31976L16.9313 8.95087C17.1943 8.68852 17.5406 8.31969 17.9702 7.84438C18.3999 7.36895 18.641 7.09844 18.6936 7.03285C18.7112 7 18.5796 6.75407 18.299 6.29507C18.0185 5.83607 17.8519 5.60657 17.7994 5.60657C17.7292 5.623 17.361 5.68451 16.6946 5.79111C16.0282 5.89758 15.5109 5.99183 15.1426 6.07385L14.6428 6.17223L14.222 5.87708C14.0115 5.7459 13.8011 5.62294 13.5907 5.50819C13.3803 5.39344 13.1611 5.2869 12.9331 5.18858L12.4333 4.99181ZM10.5131 13.6475C9.58373 13.6475 8.79023 13.3402 8.13263 12.7254C7.47504 12.1106 7.14624 11.3688 7.14624 10.5C7.14624 9.63116 7.47504 8.88936 8.13263 8.2746C8.79023 7.65985 9.58373 7.35246 10.5131 7.35246C11.4425 7.35246 12.236 7.65985 12.8936 8.2746C13.5512 8.88936 13.88 9.63116 13.88 10.5C13.88 11.3688 13.5512 12.1106 12.8936 12.7254C12.236 13.3402 11.4425 13.6475 10.5131 13.6475ZM10.5131 11.5574C10.8112 11.5574 11.0699 11.4549 11.2891 11.25C11.5083 11.0451 11.6179 10.7951 11.6179 10.5C11.6179 10.2049 11.5083 9.95491 11.2891 9.74999C11.0699 9.54507 10.8112 9.44261 10.5131 9.44261C10.1975 9.44261 9.93008 9.54507 9.71087 9.74999C9.49167 9.95491 9.38207 10.2049 9.38207 10.5C9.38207 10.7951 9.49167 11.0451 9.71087 11.25C9.93008 11.4549 10.1975 11.5574 10.5131 11.5574Z" fill="#1477FB"/>
</svg>
