<svg width="23" height="22" viewBox="0 0 23 22" fill="none" xmlns="http://www.w3.org/2000/svg">
<path d="M14.6386 16.893C14.6386 17.453 14.4343 17.9329 14.0256 18.3329C13.6169 18.7328 13.1265 18.9328 12.5544 18.9328H7.30705L1.83902 21.7882C1.33226 22.0442 0.899073 22.0682 0.539446 21.8601C0.179815 21.6522 0 21.2683 0 20.7084V8.71045C0 8.13466 0.204336 7.6468 0.613007 7.24686C1.02167 6.84693 1.51208 6.64697 2.08422 6.64697H3.1386V2.03979C3.1386 1.47979 3.33884 0.999828 3.73934 0.599896C4.13984 0.199964 4.63433 0 5.22282 0H20.9158C21.4879 0 21.9783 0.199964 22.387 0.599896C22.7957 0.999828 23 1.47979 23 2.03979V17.6849C23 18.2608 22.8324 18.6328 22.4973 18.8008C22.1623 18.9687 21.7659 18.8927 21.3082 18.5728L15.9137 14.8534H14.6386V16.893ZM16.5757 12.7899L20.9404 15.8132L20.9158 2.03979H5.22282V6.64697H12.5544C13.1265 6.64697 13.6169 6.85091 14.0256 7.2588C14.4343 7.66669 14.6386 8.15057 14.6386 8.71045V12.7899H16.5757ZM12.5544 16.893V8.71045H2.08422V19.3407L6.79212 16.893H12.5544ZM4.16845 13.8215C3.89056 13.8215 3.64944 13.7215 3.4451 13.5216C3.24076 13.3217 3.1386 13.0778 3.1386 12.7899C3.1386 12.5178 3.24076 12.2818 3.4451 12.0819C3.64944 11.8819 3.89056 11.7819 4.16845 11.7819C4.46269 11.7819 4.71198 11.8819 4.91632 12.0819C5.12065 12.2818 5.22282 12.5178 5.22282 12.7899C5.22282 13.0778 5.12065 13.3217 4.91632 13.5216C4.71198 13.7215 4.46269 13.8215 4.16845 13.8215ZM10.4456 13.8215C10.1678 13.8215 9.92663 13.7215 9.7223 13.5216C9.51796 13.3217 9.41579 13.0778 9.41579 12.7899C9.41579 12.5178 9.51796 12.2818 9.7223 12.0819C9.92663 11.8819 10.1678 11.7819 10.4456 11.7819C10.7399 11.7819 10.9892 11.8819 11.1935 12.0819C11.3978 12.2818 11.5 12.5178 11.5 12.7899C11.5 13.0778 11.3978 13.3217 11.1935 13.5216C10.9892 13.7215 10.7399 13.8215 10.4456 13.8215ZM7.30705 13.8215C7.02915 13.8215 6.78804 13.7215 6.5837 13.5216C6.37936 13.3217 6.27719 13.0778 6.27719 12.7899C6.27719 12.5178 6.37936 12.2818 6.5837 12.0819C6.78804 11.8819 7.02915 11.7819 7.30705 11.7819C7.60129 11.7819 7.85057 11.8819 8.05491 12.0819C8.25925 12.2818 8.36142 12.5178 8.36142 12.7899C8.36142 13.0778 8.25925 13.3217 8.05491 13.5216C7.85057 13.7215 7.60129 13.8215 7.30705 13.8215Z" fill="#1477FB"/>
</svg>
