<svg width="27" height="27" viewBox="0 0 27 27" fill="none" xmlns="http://www.w3.org/2000/svg">
<path d="M13.0833 1C9.87863 1 6.80519 2.27306 4.53913 4.53913C2.27306 6.80519 1 9.87863 1 13.0833C1 16.288 2.27306 19.3615 4.53913 21.6275C6.80519 23.8936 9.87863 25.1667 13.0833 25.1667C16.288 25.1667 19.3615 23.8936 21.6275 21.6275C23.8936 19.3615 25.1667 16.288 25.1667 13.0833C25.1667 9.87863 23.8936 6.80519 21.6275 4.53913C19.3615 2.27306 16.288 1 13.0833 1V1Z" stroke="#1477FB" stroke-width="2" stroke-linecap="round" stroke-linejoin="round"/>
<path d="M13.0833 8.25C11.8015 8.25 10.5721 8.75922 9.66565 9.66565C8.75922 10.5721 8.25 11.8015 8.25 13.0833C8.25 14.3652 8.75922 15.5946 9.66565 16.501C10.5721 17.4074 11.8015 17.9167 13.0833 17.9167C14.3652 17.9167 15.5946 17.4074 16.501 16.501C17.4074 15.5946 17.9167 14.3652 17.9167 13.0833C17.9167 11.8015 17.4074 10.5721 16.501 9.66565C15.5946 8.75922 14.3652 8.25 13.0833 8.25V8.25Z" stroke="#1477FB" stroke-width="2" stroke-linecap="round" stroke-linejoin="round"/>
<path d="M4.54053 4.54041L9.66386 9.66374" stroke="#1477FB" stroke-width="2" stroke-linecap="round" stroke-linejoin="round"/>
<path d="M16.5029 16.5029L21.6263 21.6263" stroke="#1477FB" stroke-width="2" stroke-linecap="round" stroke-linejoin="round"/>
<path d="M16.5029 9.66374L21.6263 4.54041" stroke="#1477FB" stroke-width="2" stroke-linecap="round" stroke-linejoin="round"/>
<path d="M16.5029 9.66373L20.7683 5.39832" stroke="#1477FB" stroke-width="2" stroke-linecap="round" stroke-linejoin="round"/>
<path d="M4.54053 21.6263L9.66386 16.5029" stroke="#1477FB" stroke-width="2" stroke-linecap="round" stroke-linejoin="round"/>
</svg>
