<svg width="27" height="20" viewBox="0 0 27 20" fill="none" xmlns="http://www.w3.org/2000/svg">
<path d="M13.5 12.4784C14.8556 12.4784 15.9545 11.3688 15.9545 10C15.9545 8.63131 14.8556 7.52173 13.5 7.52173C12.1443 7.52173 11.0454 8.63131 11.0454 10C11.0454 11.3688 12.1443 12.4784 13.5 12.4784Z" stroke="#1477FB" stroke-width="2" stroke-linecap="round" stroke-linejoin="round"/>
<path d="M18.7849 4.63421C19.4803 5.33942 20.0319 6.17687 20.4082 7.09867C20.7846 8.02048 20.9783 9.00856 20.9783 10.0064C20.9783 11.0043 20.7846 11.9924 20.4082 12.9142C20.0319 13.836 19.4803 14.6734 18.7849 15.3786M8.21529 15.3786C7.51997 14.6734 6.96836 13.836 6.59201 12.9142C6.21566 11.9924 6.02194 11.0043 6.02194 10.0064C6.02194 9.00856 6.21566 8.02048 6.59201 7.09867C6.96836 6.17687 7.51997 5.33942 8.21529 4.63421M22.3123 1.05273C24.649 3.42597 25.9617 6.64434 25.9617 10.0001C25.9617 13.3559 24.649 16.5742 22.3123 18.9475M4.68792 18.9475C2.35125 16.5742 1.03857 13.3559 1.03857 10.0001C1.03857 6.64434 2.35125 3.42597 4.68792 1.05273" stroke="#1477FB" stroke-width="2" stroke-linecap="round" stroke-linejoin="round"/>
</svg>
